HIERARCHY
ROOT Pelvis
{
	OFFSET 0.000000 0.000000 0.000000
	CHANNELS 6 Xposition Yposition Zposition Zrotation Yrotation Xrotation 
	JOINT Left_hip
	{
		OFFSET 0.069463 -0.088608 -0.009542
		CHANNELS 3 Zrotation Yrotation Xrotation
		JOINT Left_knee
		{
			OFFSET 0.030639 -0.359740 -0.005288
			CHANNELS 3 Zrotation Yrotation Xrotation
			JOINT Left_ankle
			{
				OFFSET -0.011068 -0.376034 -0.042462
				CHANNELS 3 Zrotation Yrotation Xrotation
				JOINT Left_foot
				{
					OFFSET 0.023192 -0.053321 0.111332
					CHANNELS 3 Zrotation Yrotation Xrotation
					End Site
					{
						OFFSET 0.000000 0.000000 0.000000
					}
				}
			}
		}
	}
	JOINT Right_hip
	{
		OFFSET -0.067438 -0.088025 -0.006263
		CHANNELS 3 Zrotation Yrotation Xrotation
		JOINT Right_knee
		{
			OFFSET -0.035962 -0.366229 -0.008063
			CHANNELS 3 Zrotation Yrotation Xrotation
			JOINT Right_ankle
			{
				OFFSET 0.013608 -0.375719 -0.040481
				CHANNELS 3 Zrotation Yrotation Xrotation
				JOINT Right_foot
				{
					OFFSET -0.021034 -0.045527 0.114617
					CHANNELS 3 Zrotation Yrotation Xrotation
					End Site
					{
						OFFSET 0.000000 0.000000 0.000000
					}
				}
			}
		}
	}
	JOINT Spine1
	{
		OFFSET -0.002610 0.101823 -0.019986
		CHANNELS 3 Zrotation Yrotation Xrotation
		JOINT Spine2
		{
			OFFSET 0.004114 0.128714 -0.000938
			CHANNELS 3 Zrotation Yrotation Xrotation
			JOINT Spine3
			{
				OFFSET 0.002191 0.048470 0.027684
				CHANNELS 3 Zrotation Yrotation Xrotation
				JOINT Neck
				{
					OFFSET -0.002856 0.198873 -0.044022
					CHANNELS 3 Zrotation Yrotation Xrotation
					JOINT Head
					{
						OFFSET 0.002981 0.062960 0.049860
						CHANNELS 3 Zrotation Yrotation Xrotation
						End Site
						{
							OFFSET 0.000000 0.000000 0.000000
						}
					}
				}
				JOINT Left_collar
				{
					OFFSET 0.073708 0.112550 -0.033440
					CHANNELS 3 Zrotation Yrotation Xrotation
					JOINT Left_shoulder
					{
						OFFSET 0.083291 0.030786 -0.008013
						CHANNELS 3 Zrotation Yrotation Xrotation
						JOINT Left_elbow
						{
							OFFSET 0.245601 -0.011792 -0.027873
							CHANNELS 3 Zrotation Yrotation Xrotation
							JOINT Left_wrist
							{
								OFFSET 0.232258 0.008622 -0.000487
								CHANNELS 3 Zrotation Yrotation Xrotation
								JOINT Left_palm
								{
									OFFSET 0.077300 -0.009457 -0.012851
									CHANNELS 3 Zrotation Yrotation Xrotation
									End Site
									{
										OFFSET 0.000000 0.000000 0.000000
									}
								}
							}
						}
					}
				}
				JOINT Right_collar
				{
					OFFSET -0.075339 0.110574 -0.037874
					CHANNELS 3 Zrotation Yrotation Xrotation
					JOINT Right_shoulder
					{
						OFFSET -0.086522 0.031207 -0.009986
						CHANNELS 3 Zrotation Yrotation Xrotation
						JOINT Right_elbow
						{
							OFFSET -0.237313 -0.011478 -0.019859
							CHANNELS 3 Zrotation Yrotation Xrotation
							JOINT Right_wrist
							{
								OFFSET -0.237599 0.007976 -0.003742
								CHANNELS 3 Zrotation Yrotation Xrotation
								JOINT Right_palm
								{
									OFFSET -0.076920 -0.006943 -0.009920
									CHANNELS 3 Zrotation Yrotation Xrotation
									End Site
									{
										OFFSET 0.000000 0.000000 0.000000
									}
								}
							}
						}
					}
				}
			}
		}
	}
}
MOTION
Frames: 10
Frame Time: 0.100000
0.000000 0.000000 0.000000 177.011685 27.484192 -22.325558 4.747559 5.478660 18.863392 1.022874 -9.788095 -3.569161 2.045011 6.041679 -5.173228 -5.815106 8.414184 -3.319744 -4.554452 -6.635193 22.232411 -1.038272 -0.719443 -5.088529 -4.373029 -8.894518 -7.725626 9.301774 -2.557667 8.452615 1.375217 0.691300 2.944032 -0.231893 -3.640524 5.569657 -0.519650 -2.965889 -0.670320 -1.770727 -9.978513 9.236986 -3.623051 -10.902086 3.063966 -31.137314 3.983771 5.272744 -53.148307 -6.486495 5.745631 3.897466 -15.502884 11.110203 -12.820162 2.761022 -4.857431 -7.103666 -3.128880 -7.731283 31.824303 1.754763 3.271454 54.006570 2.743627 10.947208 -7.374197 14.021267 -2.978254 7.702851 -3.407970 -2.487534 10.410968 8.029826 -3.128186 
0.000798 0.001135 -0.005129 176.935667 27.325092 -21.580779 4.578836 5.546217 17.368327 0.857439 -9.335914 -2.864939 2.466587 6.008174 -5.566088 -6.535230 8.287389 -2.334226 -4.255916 -6.446027 20.617082 -1.173897 -0.760907 -4.326257 -4.787005 -8.707586 -7.916666 9.773098 -3.299342 8.526835 1.655262 0.443046 4.401614 -0.009401 -4.106020 5.430806 0.049710 -3.061735 -1.195821 -1.052561 -10.227394 3.833762 -1.861518 -11.113273 -2.004546 -31.018227 1.683051 5.309554 -52.628378 -6.401942 5.849020 3.489448 -13.191015 11.870369 -12.754053 2.932396 -3.415813 -7.079031 -3.118956 -8.286734 31.415079 3.853523 3.431539 53.339694 3.139313 10.401011 -6.822507 11.587920 -2.759378 7.984335 -3.588591 -1.917513 10.174999 7.991860 -3.538288 
0.000681 0.001865 -0.010222 176.867875 27.031962 -20.837438 4.432575 5.485913 16.197560 0.716503 -8.954711 -2.658099 2.534974 6.045228 -5.666627 -6.546851 8.191908 -2.032167 -4.099975 -6.335999 19.236702 -1.244711 -0.713641 -3.980748 -4.506542 -8.570981 -7.877097 9.356511 -3.469152 8.301037 1.818815 0.451973 5.189585 0.184531 -4.157601 5.162215 0.415397 -3.006482 -1.445313 -0.167302 -10.783142 0.466322 -0.271689 -11.454567 -4.831650 -30.889056 0.773983 5.110294 -52.661376 -6.419735 6.101478 3.312167 -13.802357 12.349614 -12.283623 2.744089 -2.804954 -7.221227 -3.181381 -8.503291 30.784389 4.492054 3.482995 52.994181 2.607246 10.189322 -7.000658 11.856039 -2.456152 7.840158 -3.457084 -1.525347 10.076985 8.002226 -3.835982 
-0.000399 0.002457 -0.013790 176.815300 27.145255 -20.874905 4.284409 5.479749 16.043803 0.687588 -8.941519 -2.596617 2.505744 6.014428 -5.697269 -6.541193 8.184031 -2.173977 -4.120522 -6.169155 19.043519 -1.357096 -0.836654 -3.837821 -4.257320 -8.600607 -7.785407 9.176625 -3.488662 8.140301 1.801267 0.387246 5.512606 0.241581 -4.145517 4.975029 0.409407 -3.064874 -1.362274 0.385764 -11.213635 0.243313 0.268061 -11.645865 -4.830608 -30.814989 1.117021 5.019696 -52.841742 -6.582782 6.503767 3.389013 -16.689957 13.013382 -11.719597 2.305705 -2.848711 -7.175458 -3.122647 -8.224305 30.405493 4.008491 3.201546 52.902982 2.058262 10.187555 -7.176907 12.977382 -2.346940 7.641178 -3.292538 -1.466705 9.884837 7.950942 -3.757779 
-0.002091 0.002635 -0.015399 176.777151 27.034192 -21.338841 4.263431 5.511368 16.435607 0.667436 -8.959787 -2.422921 2.797916 6.052904 -5.768767 -6.843384 8.278366 -2.317432 -4.288314 -6.243253 19.494479 -1.367910 -0.749953 -3.887312 -4.379066 -8.488291 -7.654324 9.478806 -3.386406 8.310470 1.724179 0.457304 5.226323 0.248070 -4.094725 5.212270 0.276009 -3.058134 -1.229271 0.023813 -11.323979 2.173241 -0.322909 -11.698268 -3.224823 -30.878068 1.160230 5.212385 -52.904921 -6.964964 6.756028 3.168498 -17.630547 13.504135 -11.906546 2.293696 -3.014606 -7.215605 -3.115242 -8.022966 30.577863 3.897554 3.424193 52.697742 2.144202 10.303580 -7.014496 13.005583 -2.071136 7.706155 -3.401704 -1.252608 9.990045 8.018802 -3.718716 
-0.004982 0.002224 -0.017419 176.503192 27.009693 -21.817129 4.264218 5.451227 16.421057 0.658437 -8.884197 -1.824978 3.087898 6.140494 -5.915616 -7.042281 8.250288 -2.404649 -4.486549 -6.418895 19.925894 -1.208814 -0.790504 -4.102258 -4.295396 -8.048286 -7.196844 9.547419 -3.550793 8.339916 1.667424 0.572463 5.042196 0.273372 -4.133495 5.355896 0.221367 -3.031518 -1.139308 -0.361415 -11.591767 3.619077 -0.581365 -11.805068 -2.385890 -30.576581 1.221024 5.507284 -53.126019 -6.869366 6.972297 2.842136 -18.073866 14.271835 -12.322307 2.290583 -3.073452 -7.405406 -3.120949 -8.119107 30.439855 3.808441 3.641307 53.004979 2.176179 10.242736 -7.090100 13.288905 -1.898664 7.846661 -3.399845 -1.457509 10.217681 8.111554 -3.800172 
-0.011273 0.002365 -0.020587 176.120167 26.986553 -22.705472 4.241584 5.410757 16.834687 0.596676 -9.199323 -1.205016 3.537109 6.321014 -6.320117 -7.296877 8.343527 -2.577682 -4.821774 -6.600715 20.495780 -1.086166 -0.795310 -3.791325 -4.163392 -7.801632 -6.867804 9.699305 -3.582410 8.225066 1.482344 0.685416 4.623277 0.364128 -4.049974 5.369141 0.073561 -3.027304 -0.886745 -0.561317 -12.288113 6.794109 -1.002144 -12.193711 -0.250663 -30.189833 2.251112 5.727812 -53.090446 -6.686954 6.656659 2.976859 -18.460851 13.940525 -12.592175 2.478133 -3.881630 -7.421384 -3.065340 -7.978943 30.243974 3.001212 3.589381 53.281786 2.090247 10.229641 -7.266867 14.033779 -1.981612 7.901505 -3.497807 -1.908719 10.316516 8.173578 -3.593086 
-0.024886 0.003844 -0.021088 175.887268 27.169438 -25.411619 4.075818 5.787774 19.989047 0.579138 -10.395945 -0.847156 5.427618 6.536995 -7.425473 -9.506642 9.262897 -2.315341 -5.930132 -6.724236 23.774254 -1.173683 -0.346818 -3.690632 -5.204458 -7.971188 -6.819904 11.918756 -3.305242 8.982023 1.121360 0.994525 3.121186 0.441505 -3.899243 6.731781 -0.540027 -2.971145 -0.421066 -1.438369 -12.977167 15.735189 -3.219886 -12.504887 5.359271 -30.867211 3.162906 6.204390 -51.308288 -7.601886 5.558313 2.744550 -16.048292 12.902328 -14.342293 4.106193 -4.462870 -7.452270 -3.148929 -7.655382 31.540691 2.298730 3.871855 51.923901 3.076629 9.856687 -6.620495 11.569362 -3.067216 8.665194 -4.742279 -1.474149 10.852806 8.561952 -3.234262 
-0.039231 0.007926 -0.035379 175.335860 27.671000 -25.700610 3.030499 5.462157 18.569985 0.263173 -10.719742 0.946426 6.565069 6.644704 -8.923782 -10.222586 9.698631 -1.552822 -6.264743 -6.275170 20.839670 -1.573259 -0.794659 1.182885 -5.260554 -8.629936 -7.929896 12.319931 -2.963814 9.111996 1.113799 0.774078 4.941044 0.916107 -3.662024 6.552869 -0.331282 -2.796367 -1.045288 -0.535930 -13.926151 12.451006 -3.116393 -13.917663 3.944087 -31.111606 2.081958 6.833058 -49.511303 -7.511326 6.266795 2.579674 -23.655026 13.316760 -13.291415 3.515426 -5.680338 -7.647961 -3.134693 -7.150596 32.279082 4.362997 3.889321 49.408943 4.468537 9.243192 -7.967093 14.420339 -5.571855 7.788945 -4.526638 -1.172446 10.655936 8.610903 -3.233417 
-0.046162 0.016114 -0.068124 175.238366 26.736361 -22.477643 0.752888 3.946953 12.549895 -0.027822 -9.941616 2.608156 7.176291 7.547957 -9.158745 -7.593981 9.470112 -2.018296 -6.422461 -4.018618 6.466444 -1.979055 -2.217456 18.175455 -3.197642 -8.476571 -8.527705 9.511903 -3.643579 6.236894 0.794632 -0.369111 8.372177 2.280776 -3.071428 4.163063 0.839314 -2.754158 -2.048104 1.309576 -13.861921 3.476025 -1.156254 -14.835312 -1.957595 -26.587325 -0.978710 7.215991 -51.252627 -7.169787 11.124720 -1.797988 -45.899558 22.514705 -9.542913 0.536983 -7.227865 -8.906316 -2.771447 -8.463587 27.656895 7.628095 2.309046 49.576670 7.828696 10.047467 -16.677559 34.829662 -8.732737 4.703721 -1.261217 -3.618242 10.004656 8.206078 -4.393252 
